<?xml version="1.0" encoding="iso-8859-1"?>
<!-- Generator: Adobe Illustrator 19.0.0, SVG Export Plug-In . SVG Version: 6.00 Build 0)  -->
<svg version="1.1" id="Layer_1" xmlns="http://www.w3.org/2000/svg" xmlns:xlink="http://www.w3.org/1999/xlink" x="0px" y="0px"
	 viewBox="0 0 511.974 511.974" style="enable-background:new 0 0 511.974 511.974;" xml:space="preserve">
<path style="fill:#ED5564;" d="M450.867,185.987c-11.828-27.952-28.732-53.044-50.295-74.59
	c-21.545-21.546-46.638-38.467-74.574-50.279c-28.936-12.249-59.676-18.452-91.346-18.452c-31.678,0-62.403,6.203-91.339,18.452
	c-27.944,11.812-53.044,28.733-74.59,50.279c-21.546,21.546-38.459,46.639-50.278,74.59C6.203,214.924,0,245.656,0,277.326
	c0,31.671,6.203,62.403,18.444,91.34c11.82,27.936,28.733,53.044,50.279,74.59c21.545,21.545,46.646,38.451,74.59,50.278
	c28.936,12.233,59.661,18.437,91.339,18.437c31.67,0,62.41-6.203,91.346-18.437c27.937-11.827,53.029-28.733,74.574-50.278
	c21.562-21.546,38.467-46.654,50.295-74.59c12.233-28.937,18.437-59.669,18.437-91.34
	C469.303,245.656,463.1,214.924,450.867,185.987z"/>
<path style="fill:#E6E9ED;" d="M347.779,164.192c-30.218-30.217-70.388-46.857-113.127-46.857c-42.74,0-82.917,16.64-113.135,46.857
	S74.66,234.595,74.66,277.326c0,42.732,16.64,82.902,46.857,113.135c30.217,30.218,70.395,46.857,113.135,46.857
	c42.739,0,82.909-16.64,113.127-46.857c30.232-30.232,46.872-70.402,46.872-113.135
	C394.651,234.594,378.011,194.409,347.779,164.192z"/>
<path style="fill:#ED5564;" d="M234.652,191.987c-47.052,0-85.332,38.279-85.332,85.339c0,47.045,38.279,85.324,85.332,85.324
	c47.052,0,85.331-38.279,85.331-85.324C319.983,230.266,281.704,191.987,234.652,191.987z"/>
<path style="fill:#F6BB42;" d="M511.379,82.555c-1.359-3.859-4.812-6.609-8.89-7.062l-59.403-6.608l-6.594-59.388
	c-0.453-4.078-3.203-7.531-7.077-8.891c-3.859-1.359-8.171-0.375-11.077,2.516L342.92,78.556c-1.734,1.734-2.828,4.031-3.062,6.484
	l-5.453,54.888c-0.406,4.156,1.641,8.171,5.25,10.28c1.672,0.969,3.516,1.438,5.375,1.438c2.156,0,4.312-0.641,6.155-1.953
	l37.779-26.686l-26.687,37.795c-2.406,3.406-2.609,7.905-0.5,11.515c1.922,3.312,5.438,5.297,9.203,5.297
	c0.359,0,0.703-0.016,1.062-0.047l54.903-5.438c2.453-0.25,4.734-1.328,6.483-3.078l75.418-75.417
	C511.754,90.742,512.722,86.43,511.379,82.555z"/>
<path style="fill:#434A54;" d="M234.652,287.982c-2.734,0-5.461-1.031-7.546-3.125c-4.164-4.156-4.164-10.905,0.008-15.077
	l32.841-32.842c4.164-4.172,10.922-4.172,15.093,0c4.156,4.156,4.156,10.921,0,15.077l-32.857,32.842
	C240.112,286.951,237.378,287.982,234.652,287.982z"/>
<path style="fill:#FFCE54;" d="M440.976,71.009c-1.812-1.812-5.016-3.968-9.999-3.968c-9.812,0-28.452,8.608-97.761,71.043
	c-37.623,33.904-72.824,68.246-73.168,68.59c-2.055,2.016-3.218,4.766-3.218,7.641v30.154c0,5.891,4.781,10.672,10.671,10.672h30.17
	c2.875,0,5.625-1.156,7.625-3.219c0.375-0.375,37.842-38.764,73.199-78.293c20.889-23.358,36.998-42.576,47.888-57.138
	c6.812-9.108,11.562-16.327,14.53-22.108C442.883,90.555,448.867,78.899,440.976,71.009z"/>
<g>
</g>
<g>
</g>
<g>
</g>
<g>
</g>
<g>
</g>
<g>
</g>
<g>
</g>
<g>
</g>
<g>
</g>
<g>
</g>
<g>
</g>
<g>
</g>
<g>
</g>
<g>
</g>
<g>
</g>
</svg>
